<svg id="图层_1" data-name="图层 1" xmlns="http://www.w3.org/2000/svg" viewBox="0 0 137.29 224.01"><defs><style>.cls-1{fill:#231815;}.cls-1,.cls-2{stroke:#231815;stroke-miterlimit:10;}.cls-2{fill:#fff;}</style></defs><polyline class="cls-1" points="58.65 137.28 58.65 216.8 103.79 191.7 103.79 118.32 91.61 125.66 91.61 183.22 71.36 194.01 71.51 129.35"/><polygon class="cls-1" points="0.5 24.3 0.53 195.28 12.1 203.22 12.1 185.02 23.44 190.83 23.29 212.04 35.62 222.9 35.65 38.42 23.82 32.26 23.82 45.25 12.08 39.12 12.08 29.01 20.25 24.3 102.98 67.45 114.13 61.37 102.43 55.18 113.18 48.15 124.38 53.6 124.38 61.12 40.99 108.29 41.16 121.95 55.23 114.05 55.23 127.02 40.93 136.16 40.93 148.66 136.79 93.09 136.79 48.19 40.93 0.57 0.5 24.3"/><polygon class="cls-2" points="12.1 45.15 12.1 66.27 23.66 71.94 23.66 51.2 12.1 45.15"/><polygon class="cls-2" points="12.1 73.08 12.1 94.2 23.66 99.87 23.66 79.13 12.1 73.08"/><polygon class="cls-2" points="12.1 101.01 12.1 122.12 23.66 127.8 23.66 107.06 12.1 101.01"/><polygon class="cls-2" points="12.1 128.93 12.1 150.05 23.66 155.72 23.66 134.98 12.1 128.93"/><polygon class="cls-2" points="12.1 156.86 12.1 177.98 23.66 183.65 23.66 162.91 12.1 156.86"/><polygon class="cls-2" points="29.96 17.35 48.76 26.97 59.91 19.44 41.73 10.1 29.96 17.35"/><polygon class="cls-2" points="53.67 30.1 72.47 39.71 83.62 32.18 65.44 22.84 53.67 30.1"/><polygon class="cls-2" points="77.43 42.57 96.23 52.18 107.38 44.65 89.2 35.31 77.43 42.57"/><polygon class="cls-2" points="61.6 110.33 61.6 123.29 79.23 113.07 79.3 100.18 61.6 110.33"/><polygon class="cls-2" points="86.09 96.62 86.09 109.58 103.72 99.37 103.79 86.47 86.09 96.62"/><polygon class="cls-2" points="110.67 83.22 110.67 96.19 128.29 85.97 128.36 73.08 110.67 83.22"/><polygon class="cls-1" points="119.97 135.65 119.52 183.65 135.55 174.85 135.55 125.69 119.97 135.65"/><polygon class="cls-1" points="119.52 111.73 119.52 126.55 135.55 116.67 135.55 102.11 119.52 111.73"/></svg>