<svg width="320" height="320" xmlns="http://www.w3.org/2000/svg" xmlns:xlink="http://www.w3.org/1999/xlink" xml:space="preserve" overflow="hidden"><defs><clipPath id="clip0"><rect x="480" y="200" width="320" height="320"/></clipPath></defs><g clip-path="url(#clip0)" transform="translate(-480 -200)"><path d="M777.06 330.97C784.32 309.18 781.82 285.31 770.21 265.49 752.75 235.09 717.65 219.45 683.37 226.81 668.12 209.63 646.21 199.86 623.24 200 588.2 199.92 557.11 222.48 546.33 255.82 523.82 260.43 504.39 274.52 493.02 294.49 475.43 324.81 479.44 363.03 502.94 389.03 495.68 410.82 498.18 434.69 509.79 454.51 527.25 484.91 562.35 500.55 596.63 493.19 611.87 510.37 633.79 520.14 656.76 519.99 691.82 520.08 722.92 497.5 733.7 464.13 756.21 459.52 775.64 445.43 787.01 425.46 804.58 395.14 800.56 356.95 777.07 330.95ZM656.78 499.08C642.75 499.1 629.16 494.19 618.39 485.2 618.88 484.94 619.73 484.47 620.28 484.13L684 447.33C687.26 445.48 689.26 442.01 689.24 438.26L689.24 348.43 716.17 363.98C716.46 364.12 716.65 364.4 716.69 364.72L716.69 439.11C716.65 472.19 689.86 499.01 656.78 499.08ZM527.94 444.05C520.91 431.91 518.38 417.68 520.79 403.87 521.26 404.15 522.09 404.66 522.68 405L586.4 441.8C589.63 443.69 593.63 443.69 596.87 441.8L674.66 396.88 674.66 427.98C674.68 428.3 674.53 428.61 674.28 428.81L609.87 466C581.18 482.52 544.54 472.7 527.95 444.05ZM511.17 304.96C518.17 292.8 529.22 283.5 542.38 278.67 542.38 279.22 542.35 280.19 542.35 280.87L542.35 354.48C542.33 358.22 544.33 361.69 547.58 363.54L625.37 408.45 598.44 424C598.17 424.18 597.83 424.21 597.53 424.08L533.11 386.86C504.48 370.28 494.66 333.65 511.16 304.97ZM732.43 356.45 654.64 311.53 681.57 295.99C681.84 295.81 682.18 295.78 682.48 295.91L746.9 333.1C775.58 349.67 785.41 386.36 768.84 415.04 761.83 427.18 750.79 436.48 737.64 441.32L737.64 365.51C737.67 361.77 735.68 358.31 732.44 356.45ZM759.23 316.11C758.76 315.82 757.93 315.32 757.34 314.98L693.62 278.18C690.39 276.29 686.39 276.29 683.15 278.18L605.36 323.1 605.36 292C605.34 291.68 605.49 291.37 605.74 291.17L670.15 254.01C698.84 237.46 735.52 247.31 752.06 276.01 759.05 288.13 761.58 302.32 759.21 316.11ZM590.72 371.54 563.78 355.99C563.49 355.85 563.3 355.57 563.26 355.25L563.26 280.86C563.28 247.74 590.15 220.9 623.27 220.92 637.28 220.92 650.84 225.84 661.61 234.8 661.12 235.06 660.28 235.53 659.72 235.87L596 272.67C592.74 274.52 590.74 277.98 590.76 281.73L590.72 371.52ZM605.35 340 640 319.99 674.65 339.99 674.65 380 640 400 605.35 380Z"/></g></svg>